<?xml version="1.0" encoding="UTF-8"?><!DOCTYPE svg PUBLIC "-//W3C//DTD SVG 1.1//EN" "http://www.w3.org/Graphics/SVG/1.1/DTD/svg11.dtd"><svg xmlns="http://www.w3.org/2000/svg"><symbol id="back-square-md" viewBox="0 128 48 48"><path d="M45.3 130c.3 0 .6.3.6.6v42.9c0 .3-.3.6-.6.6H2.6c-.3-.1-.6-.4-.6-.7v-42.8c0-.3.3-.6.6-.6h42.7m0-2H2.6c-1.4 0-2.6 1.2-2.6 2.6v42.9c0 1.3 1.2 2.5 2.6 2.5h42.8c1.4 0 2.6-1.2 2.6-2.6v-42.8c-.1-1.4-1.3-2.6-2.7-2.6z"/><path d="M26.8 160.8l-8.1-8.6 7.7-8.9 1.5 1.2-6.5 7.7 6.9 7.2"/></symbol><symbol id="close" viewBox="0 0 20 20"><path d="M20 1.2L18.8 0 10 8.8 1.2 0 0 1.2 8.8 10 0 18.8 1.2 20l8.8-8.8 8.8 8.8 1.2-1.2-8.8-8.8z"/></symbol><symbol id="fwd-square-lg" viewBox="355 483 58 58"><path d="M359 538c-.6 0-1-.4-1-1v-50c0-.6.4-1 1-1h50c.6 0 1 .4 1 1v50c0 .6-.4 1-1 1h-50m0 2h50c1.7 0 3-1.3 3-3v-50c0-1.7-1.3-3-3-3h-50c-1.7 0-3 1.3-3 3v50c0 1.7 1.3 3 3 3z"/><path d="M381.2 503.2l7.8 8.6-7.7 9-1.6-1.3 6.6-7.7-6.5-7.3"/></symbol><symbol id="genentech" viewBox="7.1 413.2 753.8 196.3">
<path d="M82.5,452.3v-10c0,0,2.1-15.6-23.5-15.6c-26.3,0-24.9,15.6-24.9,15.6v50.5c0,0-1.4,14.2,24.9,14.2c22.8,0,23.5-6.4,23.5-6.4
	v-22.8H58.3v-13.5h50.5v36.3c0,0-10,19.9-50.5,19.9c-47.6,0-51.2-28.4-51.2-28.4v-50.5c0,0,2.1-28.4,51.2-28.4
	c52.6,0,50.5,28.4,50.5,28.4v10H82.5L82.5,452.3z M588.8,466.5c0,0,2.1-20.6-39.1-20.6c-40.5,0-39.1,19.9-39.1,19.9v34.8
	c0,0-2.1,19.9,39.1,19.9c40.5,0,39.1-19.9,39.1-19.9v-5.7h-21.3v5.7c0,0,0,8.5-17.8,8.5s-17.1-8.5-17.8-8.5v-12.8h56.2v-21.3H588.8z
	 M549.7,457.2c17.8,0,17.8,8.5,17.8,8.5v7.8h-34.8v-7.8C532.6,466.5,532.6,457.2,549.7,457.2z M674.8,475.7v-9.2
	c0,0,1.4-20.6-39.1-20.6c-40.5,0-39.1,19.9-39.1,19.9v34.8c0,0-1.4,19.9,39.1,19.9c40.5,0,39.1-19.9,39.1-19.9v-8.5h-21.3v8.5
	c0,0,0,8.5-17.8,8.5s-17.1-8.5-17.8-8.5v-34.8c0,0,0-8.5,18.5-8.5c17.1,0,17.1,8.5,17.1,8.5v9.2L674.8,475.7z M455.1,460.1h7.1v42
	c0,18.5,25.6,20.6,44.1,18.5v-10.7c-21.3,2.8-22.8-7.8-22.8-7.8v-42H507v-11.4h-23.5v-16.4h-21.3v16.4h-7.1V460.1z M364.8,466.5
	c0,0,2.1-20.6-39.1-20.6c-40.5,0-39.1,19.9-39.1,19.9v34.8c0,0-2.1,19.9,39.1,19.9s39.1-19.9,39.1-19.9v-5.7h-21.3v5.7
	c0,0,0,8.5-17.8,8.5c-17.8,0-17.1-8.5-17.8-8.5v-12.8h56.2v-21.3H364.8z M325.7,457.2c17.8,0,17.8,8.5,17.8,8.5v7.8h-34.8v-7.8
	C308.6,466.5,308.6,457.2,325.7,457.2z M194.8,466.5c0,0,1.4-20.6-39.1-20.6s-39.1,19.9-39.1,19.9v34.8c0,0-2.1,19.9,39.1,19.9
	s39.1-19.9,39.1-19.9v-5.7h-21.3v5.7c0,0,0,8.5-17.8,8.5s-17.1-8.5-17.8-8.5v-12.8h56.2v-21.3H194.8z M155.7,457.2
	c17.8,0,17.8,8.5,17.8,8.5v7.8h-34.8v-7.8C138,466.5,138,457.2,155.7,457.2z M682.7,518.4H704v-52.6c0,0,0-8.5,17.8-8.5
	s17.8,8.5,17.8,8.5v53.3h21.3v-55.5c0,0-0.7-17.8-39.1-17.8c-7.1,0-12.8,0.7-17.8,1.4V416h-21.3V518.4z M240.4,444.4
	c-12.8,0-22,2.1-27.7,5h-11.4v68.3h21.3v-52.6c0,0,0-8.5,17.8-8.5s17.8,8.5,17.8,8.5v53.3h21.3v-55.5
	C279.5,462.9,278.8,444.4,240.4,444.4L240.4,444.4z M411,444.4c-12.8,0-22,2.1-27.7,5h-11.4v68.3h21.3v-52.6c0,0,0-8.5,17.8-8.5
	s17.8,8.5,17.8,8.5v53.3h21.3v-55.5C450.1,462.9,449.4,444.4,411,444.4L411,444.4z M39.8,555.4L42,566c1.4,7.1,2.1,14.9,3.6,22
	c0.7,5,1.4,5,5,5.7v1.4H34.8l0.7-1.4h2.1c2.1,0,2.1-0.7,2.1-3.6l-1.4-8.5H27c-0.7,1.4-2.8,5-4.3,7.8s-1.4,3.6,0.7,4.3h2.1l-0.7,1.4
	H12.1l0.7-1.4c3.6-0.7,4.3-0.7,7.8-6.4l17.8-31.3L39.8,555.4L39.8,555.4z M27.7,578.8h10l-2.1-13.5
	C35.6,565.3,27.7,578.8,27.7,578.8z M88.9,556.1l7.8,29.2l17.8-29.2h11.4l-0.7,1.4c-5,0.7-5,0.7-6.4,7.1l-3.6,21.3
	c-0.7,6.4-0.7,7.1,4.3,7.1l-0.7,1.4h-16.4v-1.4c4.3-0.7,5-0.7,6.4-7.1l4.3-23.5l-19.2,31.3h-1.4l-7.1-30.6l-3.6,15.6
	c-1.4,5.7-2.1,9.2-2.1,10.7c0,2.1,0.7,2.8,5,2.8v1.4H70.4v-1.4c2.8,0,4.3-0.7,5.7-2.8c0.7-2.1,1.4-5,2.8-11.4l3.6-13.5
	c2.1-7.1,1.4-7.8-3.6-8.5v-1.4h10L88.9,556.1z M145.1,589.5c-5.7,5.7-11.4,7.1-13.5,7.1c-2.8,0-7.1-1.4-7.1-8.5
	c0-5.7,2.8-12.1,7.1-14.9c2.8-2.1,6.4-3.6,9.2-3.6c3.6,0,5.7,2.1,5.7,5c0,5.7-10,9.2-15.6,11.4v1.4c0,2.8,0.7,6.4,4.3,6.4
	c2.1,0,5.7-1.4,8.5-4.3L145.1,589.5L145.1,589.5z M136.5,571.7c-1.4,0.7-4.3,3.6-5,10.7c7.1-2.1,10-5,10-8.5c0-2.1-1.4-2.8-2.8-2.8
	C138,571,137.2,571.7,136.5,571.7L136.5,571.7z M150.8,574.6c3.6-3.6,7.8-6.4,10-6.4s2.1,2.1,1.4,5.7l-0.7,4.3
	c4.3-5,7.8-7.8,10.7-9.2c1.4-0.7,2.1-0.7,3.6-0.7s3.6,0.7,2.1,7.1l-0.7,2.8c4.3-5,8.5-7.8,10.7-9.2c1.4-0.7,2.1-0.7,2.8-0.7
	c1.4,0,3.6,0.7,2.1,7.8c-0.7,2.8-2.1,7.8-2.8,12.8c0,1.4-0.7,2.1,0,2.1c0.7,0,2.8-1.4,4.3-2.8l0.7,1.4c-3.6,2.8-8.5,5.7-10,5.7
	c-2.1,0-2.8-1.4-1.4-5L187,576c0.7-2.8,0.7-4.3-0.7-4.3c-2.1,0-7.8,5.7-10.7,10c-0.7,2.1-2.1,7.8-2.1,11.4l-6.4,1.4
	c0.7-3.6,1.4-6.4,2.1-10l1.4-8.5c0.7-1.4,0.7-3.6-0.7-3.6c-2.1,0-7.8,5.7-10.7,10c-0.7,1.4-2.1,7.8-2.1,11.4l-6.4,1.4
	c0.7-3.6,1.4-6.4,2.1-10l2.1-10c0.7-2.1,0.7-2.8,0-2.8c-0.7,0-2.8,1.4-4.3,2.8V574.6L150.8,574.6z M200.5,555.4
	c5-0.7,10.7-2.8,10.7-2.8c0.7,0,0.7,0.7,0.7,2.8l-4.3,20.6c5-5.7,10-7.8,12.8-7.8c2.1,0,4.3,2.1,4.3,5.7c0,7.1-3.6,14.9-9.2,18.5
	c-3.6,2.1-7.1,3.6-9.2,3.6c-2.8,0-5.7-1.4-6.4-3.6c-0.7-1.4,0-2.8,0.7-6.4l5.7-27c0.7-2.1,0.7-2.8-1.4-2.8H202v-0.7H200.5z
	 M209.1,578.1c-2.1,2.8-2.1,3.6-3.6,8.5c-0.7,5.7,0.7,7.1,2.8,7.1c1.4,0,2.1,0,2.8-0.7c2.8-1.4,6.4-9.2,6.4-16.4
	c0-2.8-0.7-4.3-2.1-4.3C214,572.4,211.2,575.3,209.1,578.1L209.1,578.1z M248.9,589.5c-5.7,5.7-11.4,7.1-13.5,7.1
	c-2.8,0-7.1-1.4-7.1-8.5c0-5.7,2.8-12.1,7.1-14.9c2.8-2.1,6.4-3.6,9.2-3.6c3.6,0,5.7,2.1,5.7,5c0,5.7-10,9.2-15.6,11.4v1.4
	c0,2.8,0.7,6.4,4.3,6.4c2.1,0,5.7-1.4,8.5-4.3L248.9,589.5L248.9,589.5z M240.4,571.7c-1.4,0.7-4.3,3.6-5,10.7c7.1-2.1,10-5,10-8.5
	c0-2.1-1.4-2.8-2.8-2.8C241.8,571,241.1,571.7,240.4,571.7L240.4,571.7z M253.9,574.6c3.6-3.6,7.8-6.4,10-6.4c1.4,0,1.4,2.1,1.4,4.3
	l-1.4,4.3c2.8-5,6.4-8.5,7.8-8.5c1.4,0,2.8,0.7,3.6,1.4c0.7,0.7,0,2.1,0,2.8c-0.7,1.4-1.4,1.4-2.1,2.1c-0.7,0.7-1.4,0.7-2.1,0
	c-0.7-0.7-1.4-0.7-2.1-0.7c-0.7,0-1.4,0-2.8,2.1c-1.4,2.1-2.1,3.6-3.6,6.4c-1.4,5.7-2.1,10-2.1,12.1l-6.4,1.4
	c0.7-3.6,1.4-6.4,2.1-10l2.1-10c0.7-2.1,0.7-3.6,0-3.6s-2.8,1.4-4.3,2.8V574.6L253.9,574.6z M312.9,577.4c0,5.7-2.1,11.4-6.4,14.9
	c-2.8,2.1-6.4,4.3-10,4.3c-6.4,0-8.5-5-8.5-9.2c0-7.8,4.3-13.5,8.5-15.6c2.8-1.4,5.7-2.1,7.8-2.1C310,568.9,312.9,572.4,312.9,577.4
	L312.9,577.4z M300.8,571.7c-2.1,0.7-5.7,5.7-5.7,14.2c0,4.3,1.4,7.8,4.3,7.8h1.4c2.1-0.7,5.7-7.8,5.7-15.6c0-4.3-1.4-6.4-4.3-6.4
	C301.5,571,300.8,571,300.8,571.7L300.8,571.7z M335.6,570.3l-1.4,1.4l-6.4,0.7c-0.7,5-1.4,9.2-2.1,13.5c-2.1,11.4-5,17.8-7.8,19.9
	c-2.8,2.8-5.7,3.6-7.1,3.6c-1.4,0-2.8-0.7-2.8-2.1c0-0.7,0.7-2.1,1.4-2.8c0.7-0.7,1.4-0.7,2.1-0.7c0.7,0,2.1,1.4,2.8,1.4
	c0.7,0,0.7,0,1.4-0.7c0.7-0.7,2.1-5,3.6-15.6c1.4-7.1,1.4-12.1,2.8-17.1h-5V571l1.4-2.1h3.6c0.7-5,2.1-9.2,5-12.1
	c2.1-2.8,6.4-5,10-5c2.1,0,3.6,1.4,3.6,2.8c0,1.4-0.7,2.1-1.4,2.8c-0.7,0.7-1.4,0.7-2.1,0c-1.4-1.4-2.8-2.1-4.3-2.1s-2.8,2.8-5,14.2
	h7.8L335.6,570.3z M366.9,561.8l-2.1,7.8h7.1l-2.1,2.1h-5.7l-3.6,15.6c-0.7,2.1,0,3.6,0.7,3.6c1.4,0,3.6-2.1,5.7-3.6l0.7,1.4
	c-2.1,2.1-7.8,7.1-10.7,7.1c-2.1,0-2.8-2.1-2.1-7.8l3.6-15.6h-4.3l-0.7-0.7l2.1-1.4h3.6l1.4-4.3l5.7-4.3H366.9z M371.9,595.9
	c0.7-2.8,1.4-5.7,2.1-9.2l5.7-27.7c0.7-2.1,0.7-2.8-1.4-2.8h-2.8v-1.4c5-0.7,10.7-2.8,10.7-2.8c0.7,0,0.7,0.7,0.7,2.8l-5,22.8
	c4.3-5,7.8-7.8,10.7-8.5c1.4-0.7,2.1-0.7,3.6-0.7c1.4,0,3.6,0.7,2.1,6.4c-0.7,4.3-2.1,9.2-2.8,14.2c-0.7,1.4-0.7,2.1,0,2.1
	s2.8-1.4,4.3-2.8l0.7,1.4c-3.6,2.8-8.5,5.7-10,5.7s-2.1-1.4-1.4-5l3.6-14.2c0.7-2.8,0.7-4.3-0.7-4.3c-2.1,0-7.8,5.7-10.7,10
	c0,1.4-2.1,8.5-2.1,11.4L371.9,595.9L371.9,595.9z M424.5,589.5c-5.7,5.7-11.4,7.1-13.5,7.1c-2.8,0-7.1-1.4-7.1-8.5
	c0-5.7,2.8-12.1,7.1-14.9c2.8-2.1,6.4-3.6,9.2-3.6c3.6,0,5.7,2.1,5.7,5c0,5.7-10,9.2-15.6,11.4v1.4c0,2.8,0.7,6.4,4.3,6.4
	c2.1,0,5.7-1.4,8.5-4.3L424.5,589.5L424.5,589.5z M416,571.7c-1.4,0.7-4.3,3.6-5,10.7c7.1-2.1,10-5,10-8.5c0-2.1-1.4-2.8-2.8-2.8
	C417.4,571,416.7,571.7,416,571.7L416,571.7z M464.4,556.1c6.4,0,12.8,1.4,12.8,9.2c0,5.7-5,9.2-10,10.7c0.7,1.4,2.1,5.7,3.6,7.8
	c1.4,3.6,2.8,5.7,3.6,6.4c1.4,1.4,2.1,2.1,4.3,2.8l-0.7,1.4h-2.1c-6.4,0-8.5-2.1-10-5.7c-1.4-2.8-2.8-6.4-4.3-9.2
	c-0.7-2.1-1.4-2.1-2.8-2.1h-2.1l-1.4,9.2c-1.4,6.4-0.7,7.1,3.6,7.1v1.4h-16.4v-1.4c4.3-0.7,5-0.7,6.4-7.1l4.3-21.3
	c1.4-6.4,0.7-7.1-3.6-7.1v-1.4h14.9V556.1z M457.2,576.7h2.1c2.1,0,4.3-0.7,6.4-1.4c3.6-2.1,5-5.7,5-9.2c0-4.3-2.8-7.1-7.1-7.1h-2.8
	c-0.7,0-0.7,0.7-0.7,1.4L457.2,576.7z M507,577.4c0,5.7-2.1,11.4-6.4,14.9c-2.8,2.1-6.4,4.3-10,4.3c-6.4,0-8.5-5-8.5-9.2
	c0-7.8,4.3-13.5,8.5-15.6c2.8-1.4,5.7-2.1,7.8-2.1C504.2,568.9,507,572.4,507,577.4L507,577.4z M494.9,571.7
	c-2.1,0.7-5.7,5.7-5.7,14.2c0,4.3,1.4,7.8,4.3,7.8h1.4c2.1-0.7,5.7-7.8,5.7-15.6c0-4.3-1.4-6.4-4.3-6.4
	C495.6,571,495.6,571,494.9,571.7L494.9,571.7z M530.5,589.5c-4.3,4.3-9.2,6.4-12.1,6.4c-4.3,0-7.1-2.8-7.1-8.5
	c0-5,2.1-10.7,6.4-14.2c2.8-2.1,6.4-4.3,10.7-4.3c2.8,0,5,1.4,5,2.8c0,0.7-0.7,2.1-1.4,2.8s-2.1,0.7-2.8,0c-1.4-2.1-2.8-2.8-4.3-2.8
	c-1.4,0-2.8,0.7-4.3,3.6c-1.4,2.8-2.8,7.1-2.8,11.4c0,3.6,1.4,5.7,3.6,5.7c3.6,0,6.4-2.1,7.8-3.6L530.5,589.5z M534.8,595.9
	c0.7-2.8,1.4-5.7,2.1-9.2l5.7-27.7c0.7-2.1,0.7-2.8-1.4-2.8h-2.8v-1.4c5-0.7,10.7-2.8,10.7-2.8c0.7,0,0.7,0.7,0.7,2.8l-5,22.8
	c4.3-5,7.8-7.8,10.7-8.5c1.4-0.7,2.1-0.7,3.6-0.7c1.4,0,3.6,0.7,2.1,6.4c-0.7,4.3-2.1,9.2-2.8,14.2c0,1.4-0.7,2.1,0,2.1
	c0.7,0,2.8-1.4,4.3-2.8l0.7,1.4c-3.6,2.8-8.5,5.7-10,5.7c-1.4,0-2.1-1.4-1.4-5l3.6-14.2c0.7-2.8,0.7-4.3-0.7-4.3
	c-2.1,0-7.8,5.7-10.7,10c-0.7,1.4-2.1,8.5-2.1,11.4L534.8,595.9L534.8,595.9z M587.4,589.5c-5.7,5.7-11.4,7.1-13.5,7.1
	c-2.8,0-7.1-1.4-7.1-8.5c0-5.7,2.8-12.1,7.1-14.9c2.1-2.8,5.7-4.3,9.2-4.3c3.6,0,5.7,2.1,5.7,5c0,5.7-10,9.2-15.6,11.4v1.4
	c0,2.8,0.7,6.4,4.3,6.4c2.1,0,5.7-1.4,8.5-4.3L587.4,589.5L587.4,589.5z M578.8,571.7c-1.4,0.7-4.3,3.6-5,10.7c7.1-2.1,10-5,10-8.5
	c0-2.1-1.4-2.8-2.8-2.8C579.6,571,578.8,571.7,578.8,571.7L578.8,571.7z M642.1,566.8c0-7.1-5-9.2-9.2-9.2
	c-10.7,0-17.8,10-17.8,21.3c0,8.5,4.3,14.9,12.1,14.9c2.8,0,5-0.7,5.7-3.6l1.4-6.4c0.7-4.3,0.7-4.3-5.7-5v-2.1H645v2.1
	c-2.8,0-3.6,0-4.3,5l-0.7,5.7c0,1.4-0.7,2.8-0.7,4.3c-3.6,0.7-8.5,2.1-12.8,2.1c-10.7,0-18.5-5.7-18.5-17.1
	c0-14.2,12.1-23.5,26.3-23.5c5,0,8.5,0.7,10.7,1.4c0,2.1-0.7,5-0.7,9.2L642.1,566.8L642.1,566.8z M647.8,574.6
	c3.6-3.6,7.8-6.4,10-6.4c1.4,0,1.4,2.1,1.4,4.3l-1.4,4.3c2.8-5,6.4-8.5,7.8-8.5s2.8,0.7,3.6,1.4c0.7,0.7,0,2.1,0,2.8
	c-0.7,1.4-1.4,1.4-2.1,2.1c-0.7,0.7-1.4,0.7-2.1,0s-1.4-0.7-2.1-0.7s-1.4,0-2.8,2.1c-1.4,2.1-2.1,3.6-3.6,6.4
	c-1.4,5.7-2.1,10-2.1,12.1l-6.4,1.4c0.7-3.6,1.4-6.4,2.1-10l2.1-10c0.7-2.1,0.7-3.6,0-3.6s-2.8,1.4-4.3,2.8L647.8,574.6L647.8,574.6
	z M694,577.4c0,5.7-2.1,11.4-6.4,14.9c-2.8,2.1-6.4,4.3-10,4.3c-6.4,0-8.5-5-8.5-9.2c0-7.8,4.3-13.5,8.5-15.6
	c2.8-1.4,5.7-2.1,7.8-2.1C691.2,568.9,694,572.4,694,577.4L694,577.4z M682,571.7c-2.1,0.7-5.7,5.7-5.7,14.2c0,4.3,1.4,7.8,4.3,7.8
	h1.4c2.1-0.7,5.7-7.8,5.7-15.6c0-4.3-1.4-6.4-4.3-6.4C683.4,571,682.7,571,682,571.7L682,571.7z M699,574.6c3.6-3.6,7.8-6.4,10-6.4
	c1.4,0,2.1,1.4,1.4,4.3l-2.8,13.5c-0.7,2.8-0.7,4.3,0.7,4.3c1.4,0,2.8-2.1,5-4.3c2.1-2.1,4.3-5.7,5.7-7.8c0.7-1.4,1.4-6.4,2.1-9.2
	l5.7-1.4h0.7c-1.4,7.1-2.8,13.5-4.3,20.6c0,1.4-0.7,2.1,0,2.1c0.7,0,2.8-1.4,4.3-2.8l0.7,1.4c-3.6,2.8-8.5,5.7-9.2,5.7
	c-2.1,0-2.1-2.1-1.4-5l1.4-5.7c-2.8,4.3-7.1,7.8-9.2,9.2c-1.4,0.7-2.8,1.4-4.3,1.4c-1.4,0-3.6-0.7-2.1-7.8l2.8-12.1
	c0.7-2.1,0.7-2.8,0-2.8s-2.8,1.4-4.3,2.8H699L699,574.6z M743.8,569.6c1.4-0.7,3.6-0.7,5-0.7c6.4,0,9.2,2.8,9.2,7.8
	c0,3.6-1.4,8.5-5.7,12.8c-2.8,3.6-7.1,5.7-11.4,7.1c-0.7,0-2.1,0-2.8-0.7l-1.4,7.8c-0.7,2.8-0.7,3.6,1.4,3.6h2.8v1.4l-15.6,0.7V608
	c3.6-0.7,4.3-1.4,5-3.6l6.4-30.6c-1.4,0-3.6,0.7-5,1.4l-0.7-1.4c2.1-1.4,4.3-1.4,5.7-2.1l0.7-2.1c1.4-1.4,3.6-2.8,5.7-3.6l0.7,0.7
	L743.8,569.6L743.8,569.6z M739.6,591.6c0.7,0.7,1.4,1.4,3.6,1.4c4.3,0,9.2-7.8,9.2-15.6c0-5-2.8-6.4-5.7-6.4c-1.4,0-2.1,0-2.8,0.7
	L739.6,591.6L739.6,591.6z"/>
</symbol><symbol id="left-square" viewBox="-16.8 95.5 50 50"><path d="M30.4 145.5H-14c-1.5 0-2.8-1.2-2.8-2.8V98.2c0-1.5 1.2-2.8 2.8-2.8h44.5c1.5 0 2.8 1.2 2.8 2.8v44.5c-.1 1.6-1.3 2.8-2.9 2.8zM-14 97.3c-.5 0-.9.4-.9.9v44.5c0 .5.4.9.9.9h44.5c.5 0 .9-.4.9-.9V98.2c0-.5-.4-.9-.9-.9H-14z"/><path d="M19.7 120H2l5.9-6.8-1.5-1.3-8 9 8 8.7 1.5-1.3-5.9-6.4h17.7"/></symbol><symbol id="play" viewBox="0 0 50 50"><path d="M47.1 50H2.8C1.3 50 0 48.8 0 47.2V2.8C0 1.3 1.2 0 2.8 0h44.4C48.7 0 50 1.2 50 2.8v44.4c-.1 1.6-1.3 2.8-2.9 2.8zM2.8 1.9c-.5 0-.9.4-.9.9v44.4c0 .5.4.9.9.9h44.4c.5 0 .9-.4.9-.9V2.8c0-.5-.4-.9-.9-.9H2.8z"/><path d="M21.2 20.4v9.2l9.2-4.6-9.2-4.6z"/></symbol><symbol id="share-email" viewBox="0 0 30 30">
<g>
	<polygon points="1.3,4.3 14.7,17.9 28.4,4.3 	"/>
	<polygon points="10.4,16.8 1.4,25.7 27.8,25.7 19.1,16.9 14.7,21.2 	"/>
	<polygon points="0,23.8 8.6,15.2 0,6.5 	"/>
	<polygon points="30,24.6 30,6.2 20.8,15.3 	"/>
</g>
</symbol><symbol id="share-facebook" viewBox="0 0 30 30">
<g id="_x23_020201ff">
	<path d="M12.6,1.5C13.8,0.4,15.4,0.1,17,0c1.7,0,3.3,0,5,0c0,1.8,0,3.5,0,5.3c-1.1,0-2.1,0-3.2,0
		c-0.7,0-1.4,0.5-1.5,1.1c0,1.2,0,2.3,0,3.5c1.6,0,3.1,0,4.7,0c-0.1,1.7-0.3,3.4-0.6,5.1c-1.4,0-2.8,0-4.2,0c0,5,0,10,0,15
		c-2.1,0-4.1,0-6.2,0c0-5,0-10,0-15c-1,0-2,0-3,0c0-1.7,0-3.4,0-5c1,0,2,0,3,0c0-1.6,0-3.3,0-4.9C11.2,3.7,11.6,2.4,12.6,1.5z"/>
</g>
</symbol><symbol id="share-linkedin" viewBox="0 0 30 30">
<path d="M5.9,0C2.6,0,0,2.6,0,5.9v18.2C0,27.4,2.6,30,5.9,30h18.2c3.2,0,5.9-2.6,5.9-5.9V5.9C30,2.6,27.4,0,24.1,0
	L5.9,0L5.9,0z M7.4,5c1.6,0,2.5,1,2.5,2.4c0,1.3-1,2.4-2.6,2.4h0c-1.5,0-2.5-1-2.5-2.4C4.8,6,5.8,5,7.4,5L7.4,5z M20.7,11.2
	c3,0,5.2,1.9,5.2,6.1v7.8h-4.5v-7.3c0-1.8-0.7-3.1-2.3-3.1c-1.3,0-2,0.8-2.3,1.7c-0.1,0.3-0.1,0.7-0.1,1.1v7.6h-4.5
	c0,0,0.1-12.4,0-13.6h4.5v1.9C17.2,12.5,18.3,11.2,20.7,11.2L20.7,11.2z M5.1,11.5h4.5v13.6H5.1V11.5L5.1,11.5z"/>
</symbol><symbol id="share-twitter" viewBox="0 0 30 30">
<path d="M30,5.7c-1.1,0.5-2.3,0.8-3.5,1c1.3-0.8,2.2-2,2.7-3.4C28,4,26.7,4.5,25.3,4.8c-1.1-1.2-2.7-1.9-4.5-1.9
	c-3.4,0-6.2,2.8-6.2,6.2c0,0.5,0.1,1,0.2,1.4C9.7,10.1,5.1,7.7,2.1,3.9C1.6,4.8,1.3,5.9,1.3,7c0,2.1,1.1,4,2.7,5.1
	c-1,0-2-0.3-2.8-0.8c0,0,0,0.1,0,0.1c0,3,2.1,5.5,4.9,6c-0.5,0.1-1.1,0.2-1.6,0.2c-0.4,0-0.8,0-1.2-0.1c0.8,2.4,3.1,4.2,5.7,4.3
	c-2.1,1.7-4.8,2.6-7.6,2.6c-0.5,0-1,0-1.5-0.1c2.7,1.7,6,2.8,9.4,2.8c11.3,0,17.5-9.4,17.5-17.5c0-0.3,0-0.5,0-0.8
	C28.1,8,29.2,6.9,30,5.7z"/>
</symbol><symbol id="share" viewBox="0 0 75 75"><path d="M14.1 31.2c3.5 0 6.3 2.8 6.3 6.3s-2.8 6.3-6.3 6.3-6.3-2.8-6.3-6.3c.1-3.5 2.9-6.3 6.3-6.3zM60.9 7.9c3.5 0 6.3 2.8 6.3 6.3s-2.8 6.3-6.3 6.3-6.3-2.8-6.3-6.3 2.8-6.3 6.3-6.3zm0 46.7c3.5 0 6.3 2.8 6.3 6.3s-2.8 6.3-6.3 6.3-6.3-2.8-6.3-6.3 2.8-6.3 6.3-6.3zm-46.7-6.7c3.3 0 6.3-1.6 8.2-4L50.6 58c.1 0 .1.1.2.1-.2.9-.4 1.8-.4 2.7 0 5.7 4.7 10.4 10.4 10.4s10.4-4.7 10.4-10.4-4.7-10.4-10.4-10.4c-3.3 0-6.3 1.6-8.2 4-.1 0-.1-.1-.2-.1L24.2 40.2c.2-.9.4-1.8.4-2.7 0-.9-.1-1.9-.4-2.7.1 0 .1 0 .2-.1l28.1-14c.1 0 .1-.1.2-.1 1.9 2.4 4.9 4 8.2 4 5.7 0 10.4-4.7 10.4-10.4S66.6 3.8 60.9 3.8 50.4 8.4 50.4 14.2c0 .9.1 1.9.4 2.7-.1 0-.1 0-.2.1L22.5 31c-.1 0-.1.1-.2.1-1.9-2.4-4.9-4-8.2-4-5.7 0-10.4 4.7-10.4 10.4.1 5.7 4.7 10.4 10.5 10.4z"/></symbol></svg>